<?xml version="1.0" encoding="utf-8"?>
<!-- Generator: Adobe Illustrator 14.0.0, SVG Export Plug-In . SVG Version: 6.00 Build 43363)  -->
<!DOCTYPE svg PUBLIC "-//W3C//DTD SVG 1.1//EN" "http://www.w3.org/Graphics/SVG/1.1/DTD/svg11.dtd">
<svg version="1.1" id="Capa_1" xmlns="http://www.w3.org/2000/svg" xmlns:xlink="http://www.w3.org/1999/xlink" x="0px" y="0px"
	 width="88.956px" height="88.956px" viewBox="0 0 88.956 88.956" enable-background="new 0 0 88.956 88.956" xml:space="preserve">
<g>
	<path fill="#FFFFFF" d="M44.478,88.956C19.952,88.956,0,69.003,0,44.478S19.952,0,44.478,0s44.479,19.952,44.479,44.478
		S69.003,88.956,44.478,88.956L44.478,88.956z M44.478,6C23.261,6,6,23.261,6,44.478s17.261,38.479,38.478,38.479
		s38.479-17.262,38.479-38.479S65.694,6,44.478,6L44.478,6z"/>
</g>
<path fill="#FFFFFF" d="M42.382,57.13c-0.786,0-1.552-0.31-2.121-0.879l-9.61-9.609c-1.172-1.171-1.172-3.07,0-4.242
	c1.17-1.172,3.07-1.172,4.242,0l6.394,6.393c2.836-6.348,9.359-18.393,21.501-28.651c1.267-1.069,3.159-0.908,4.229,0.355
	c1.069,1.266,0.91,3.159-0.355,4.229C50.914,38.028,45.289,54.891,45.234,55.059c-0.323,0.992-1.139,1.745-2.153,1.988
	C42.85,57.103,42.614,57.13,42.382,57.13L42.382,57.13z"/>
</svg>
